<?xml version="1.0" encoding="UTF-8" standalone="no"?>
<!DOCTYPE svg PUBLIC "-//W3C//DTD SVG 1.1//EN" "http://www.w3.org/Graphics/SVG/1.1/DTD/svg11.dtd">
<svg version="1.1" xmlns="http://www.w3.org/2000/svg" xmlns:xlink="http://www.w3.org/1999/xlink" preserveAspectRatio="xMidYMid meet" viewBox="0 0 524.76 129.14" width="524.76" height="129.14"><defs><path d="M517.53 -162.3C517.53 -162.3 517.53 -162.3 517.53 -162.3C517.53 137.1 517.53 303.44 517.53 336.7C517.53 336.7 517.53 336.7 517.53 336.7C218.13 336.7 51.8 336.7 18.53 336.7C18.53 336.7 18.53 336.7 18.53 336.7C18.53 37.3 18.53 -129.03 18.53 -162.3C18.53 -162.3 18.53 -162.3 18.53 -162.3C317.93 -162.3 484.27 -162.3 517.53 -162.3Z" id="b2cPtZ4FJg"></path><path d="M517.53 -162.3C517.53 -162.3 517.53 -162.3 517.53 -162.3C517.53 137.1 517.53 303.44 517.53 336.7C517.53 336.7 517.53 336.7 517.53 336.7C218.13 336.7 51.8 336.7 18.53 336.7C18.53 336.7 18.53 336.7 18.53 336.7C18.53 37.3 18.53 -129.03 18.53 -162.3C18.53 -162.3 18.53 -162.3 18.53 -162.3C317.93 -162.3 484.27 -162.3 517.53 -162.3Z" id="a4HdnDG6WW"></path><path d="M517.53 -162.3C517.53 -162.3 517.53 -162.3 517.53 -162.3C517.53 137.1 517.53 303.44 517.53 336.7C517.53 336.7 517.53 336.7 517.53 336.7C218.13 336.7 51.8 336.7 18.53 336.7C18.53 336.7 18.53 336.7 18.53 336.7C18.53 37.3 18.53 -129.03 18.53 -162.3C18.53 -162.3 18.53 -162.3 18.53 -162.3C317.93 -162.3 484.27 -162.3 517.53 -162.3Z" id="aWza9zmuK"></path><path d="M51.09 53.03L63.56 83.91L55.99 83.91L53.7 77.73L41.96 77.73L39.67 83.91L32.12 83.91L44.58 53.03L51.09 53.03ZM51.31 71.56L47.86 62.57L47.8 62.57L44.35 71.56L51.31 71.56Z" id="f2mDV9CUQi"></path><path d="M97.46 53.03C97.46 64.98 97.46 71.62 97.46 72.95C97.46 76.73 96.43 79.6 94.38 81.56C92.34 83.5 89.35 84.47 85.4 84.47C81.46 84.47 78.46 83.5 76.42 81.56C74.38 79.6 73.36 76.73 73.36 72.95C73.36 71.62 73.36 64.98 73.36 53.03L80.39 53.03C80.39 63.75 80.39 69.7 80.39 70.89C80.39 73.39 80.78 75.12 81.57 76.09C82.36 77.06 83.64 77.54 85.4 77.54C87.17 77.54 88.45 77.06 89.24 76.09C90.03 75.12 90.43 73.39 90.43 70.89C90.43 69.7 90.43 63.75 90.43 53.03L97.46 53.03Z" id="eOiU6EQsn"></path><path d="M126.84 53.2C128.43 53.69 129.62 54.16 130.4 54.63C130.47 54.68 130.85 54.93 131.52 55.38C129.81 58.75 128.86 60.62 128.67 60.99C128.45 60.86 128.14 60.67 127.74 60.43C127.33 60.18 126.58 59.87 125.49 59.48C124.39 59.08 123.37 58.87 122.43 58.87C121.25 58.87 120.34 59.12 119.71 59.62C119.07 60.12 118.75 60.8 118.75 61.64C118.75 62.07 118.9 62.46 119.19 62.82C119.49 63.19 120.01 63.57 120.73 63.99C121.46 64.39 122.1 64.72 122.64 64.96C123.19 65.21 124.04 65.59 125.2 66.09C127.19 66.93 128.89 68.09 130.29 69.56C131.71 71.02 132.41 72.67 132.41 74.51C132.41 76.29 132.09 77.83 131.46 79.17C130.82 80.49 129.94 81.51 128.84 82.26C127.72 83.01 126.5 83.57 125.16 83.93C123.81 84.29 122.35 84.47 120.77 84.47C119.42 84.47 118.1 84.33 116.8 84.05C115.51 83.78 114.43 83.44 113.56 83.03C112.68 82.62 111.89 82.21 111.19 81.81C110.49 81.41 109.98 81.07 109.67 80.81C109.63 80.78 109.47 80.64 109.17 80.39C111.29 76.84 112.47 74.86 112.7 74.47C112.99 74.72 113.4 75.04 113.93 75.42C114.45 75.81 115.39 76.33 116.72 76.98C118.05 77.64 119.22 77.96 120.25 77.96C123.21 77.96 124.7 76.95 124.7 74.92C124.7 74.5 124.6 74.1 124.39 73.74C124.18 73.38 123.81 73.02 123.27 72.66C122.72 72.3 122.25 72.01 121.83 71.81C121.43 71.59 120.75 71.26 119.81 70.83C118.88 70.39 118.2 70.05 117.76 69.83C115.88 68.92 114.43 67.77 113.41 66.38C112.38 65 111.87 63.5 111.87 61.91C111.87 59.14 112.89 56.87 114.93 55.11C116.98 53.35 119.31 52.47 121.93 52.47C123.61 52.47 125.25 52.71 126.84 53.2Z" id="a1CUG0BMem"></path><path d="M142.74 59.21L142.74 53.03L164.45 53.03L164.45 59.21L157.13 59.21L157.13 83.91L150.08 83.91L150.08 59.21L142.74 59.21Z" id="a6vr06Nsm"></path><path d="M183.01 53.03L183.01 83.91L175.98 83.91L175.98 53.03L183.01 53.03Z" id="p3N7oaKdsl"></path><path d="M203.52 83.91L196.5 83.91L196.5 53.03L203.52 53.03L215.81 72.2L215.87 72.2L215.87 53.03L222.92 53.03L222.92 83.91L215.87 83.91L203.61 64.74L203.52 83.91Z" id="fM3cp85w"></path><path d="M269.02 53.03C269.02 66.33 269.02 73.72 269.02 75.19C269.02 78.2 268.19 80.51 266.53 82.1C264.88 83.68 262.51 84.47 259.42 84.47C258.59 84.47 257.77 84.36 256.97 84.16C256.18 83.96 255.5 83.73 254.95 83.45C254.41 83.16 253.91 82.87 253.47 82.58C253.05 82.27 252.72 82.01 252.52 81.81C252.49 81.79 252.38 81.69 252.18 81.51C253.53 77.98 254.28 76.02 254.43 75.63C255.89 77.03 257.24 77.73 258.44 77.73C259.51 77.73 260.36 77.38 261.02 76.67C261.67 75.95 262 74.86 262 73.39C262 72.03 262 65.24 262 53.03L269.02 53.03Z" id="d1hUzcwvif"></path><path d="M285.31 57.11C288.36 54.02 292.03 52.47 296.31 52.47C300.63 52.47 304.3 54.02 307.31 57.11C310.33 60.18 311.84 63.97 311.84 68.46C311.84 72.96 310.35 76.76 307.39 79.85C304.42 82.93 300.73 84.47 296.31 84.47C291.79 84.47 288.06 82.94 285.12 79.89C282.2 76.83 280.74 73.02 280.74 68.46C280.74 63.98 282.26 60.2 285.31 57.11ZM289.09 72.89C289.59 74.22 290.47 75.35 291.71 76.28C292.96 77.19 294.49 77.65 296.31 77.65C298.93 77.65 300.9 76.75 302.23 74.97C303.58 73.17 304.25 70.99 304.25 68.46C304.25 65.94 303.57 63.77 302.21 61.97C300.85 60.16 298.89 59.25 296.31 59.25C293.77 59.25 291.81 60.16 290.43 61.97C289.04 63.77 288.35 65.94 288.35 68.46C288.35 70.08 288.6 71.56 289.09 72.89Z" id="b2vZP5SVPm"></path><path d="M330.96 71.51L330.96 83.91L323.94 83.91L323.94 53.03L330.96 53.03L330.96 65.34L340.92 65.34L340.92 53.03L347.97 53.03L347.97 83.91L340.92 83.91L340.92 71.51L330.96 71.51Z" id="a1WBaMxQw"></path><path d="M368.46 83.91L361.44 83.91L361.44 53.03L368.46 53.03L380.75 72.2L380.81 72.2L380.81 53.03L387.86 53.03L387.86 83.91L380.81 83.91L368.55 64.74L368.46 83.91Z" id="ijYGjCuMo"></path><path d="M417.61 53.2C419.2 53.69 420.39 54.16 421.17 54.63C421.24 54.68 421.62 54.93 422.29 55.38C420.58 58.75 419.63 60.62 419.44 60.99C419.22 60.86 418.91 60.67 418.51 60.43C418.1 60.18 417.35 59.87 416.26 59.48C415.17 59.08 414.15 58.87 413.21 58.87C412.03 58.87 411.12 59.12 410.48 59.62C409.84 60.12 409.53 60.8 409.53 61.64C409.53 62.07 409.67 62.46 409.96 62.82C410.26 63.19 410.78 63.57 411.5 63.99C412.23 64.39 412.87 64.72 413.41 64.96C413.96 65.21 414.82 65.59 415.97 66.09C417.97 66.93 419.66 68.09 421.07 69.56C422.48 71.02 423.19 72.67 423.19 74.51C423.19 76.29 422.86 77.83 422.23 79.17C421.59 80.49 420.72 81.51 419.61 82.26C418.5 83.01 417.27 83.57 415.93 83.93C414.58 84.29 413.12 84.47 411.54 84.47C410.2 84.47 408.87 84.33 407.57 84.05C406.28 83.78 405.2 83.44 404.33 83.03C403.45 82.62 402.66 82.21 401.96 81.81C401.26 81.41 400.76 81.07 400.44 80.81C400.41 80.78 400.24 80.64 399.94 80.39C402.06 76.84 403.24 74.86 403.48 74.47C403.77 74.72 404.17 75.04 404.7 75.42C405.23 75.81 406.16 76.33 407.49 76.98C408.82 77.64 409.99 77.96 411.02 77.96C413.99 77.96 415.47 76.95 415.47 74.92C415.47 74.5 415.37 74.1 415.16 73.74C414.95 73.38 414.58 73.02 414.04 72.66C413.5 72.3 413.02 72.01 412.6 71.81C412.2 71.59 411.53 71.26 410.59 70.83C409.66 70.39 408.97 70.05 408.53 69.83C406.66 68.92 405.21 67.77 404.18 66.38C403.15 65 402.64 63.5 402.64 61.91C402.64 59.14 403.66 56.87 405.7 55.11C407.75 53.35 410.09 52.47 412.71 52.47C414.38 52.47 416.02 52.71 417.61 53.2Z" id="g368mBrBX"></path><path d="M438.65 57.11C441.69 54.02 445.36 52.47 449.65 52.47C453.97 52.47 457.64 54.02 460.65 57.11C463.67 60.18 465.18 63.97 465.18 68.46C465.18 72.96 463.69 76.76 460.73 79.85C457.76 82.93 454.07 84.47 449.65 84.47C445.13 84.47 441.4 82.94 438.46 79.89C435.54 76.83 434.07 73.02 434.07 68.46C434.07 63.98 435.6 60.2 438.65 57.11ZM442.43 72.89C442.93 74.22 443.8 75.35 445.05 76.28C446.3 77.19 447.83 77.65 449.65 77.65C452.27 77.65 454.24 76.75 455.57 74.97C456.91 73.17 457.59 70.99 457.59 68.46C457.59 65.94 456.91 63.77 455.55 61.97C454.19 60.16 452.23 59.25 449.65 59.25C447.11 59.25 445.15 60.16 443.76 61.97C442.38 63.77 441.68 65.94 441.68 68.46C441.68 70.08 441.93 71.56 442.43 72.89Z" id="fkYh0CxPE"></path><path d="M484.3 83.91L477.27 83.91L477.27 53.03L484.3 53.03L496.59 72.2L496.65 72.2L496.65 53.03L503.7 53.03L503.7 83.91L496.65 83.91L484.38 64.74L484.3 83.91Z" id="a5ZlhqPoC5"></path></defs><g><g><g><use xlink:href="#b2cPtZ4FJg" opacity="1" fill="#ffffff" fill-opacity="1"></use><g><use xlink:href="#b2cPtZ4FJg" opacity="1" fill-opacity="0" stroke="#000000" stroke-width="1" stroke-opacity="0"></use></g></g><g><use xlink:href="#a4HdnDG6WW" opacity="1" fill="#000000" fill-opacity="1"></use><g><use xlink:href="#a4HdnDG6WW" opacity="1" fill-opacity="0" stroke="#000000" stroke-width="1" stroke-opacity="0"></use></g></g><g><use xlink:href="#aWza9zmuK" opacity="1" fill="#ffffff" fill-opacity="1"></use><g><use xlink:href="#aWza9zmuK" opacity="1" fill-opacity="0" stroke="#000000" stroke-width="1" stroke-opacity="0"></use></g></g><g><use xlink:href="#f2mDV9CUQi" opacity="1" fill="#263d5b" fill-opacity="1"></use><g><use xlink:href="#f2mDV9CUQi" opacity="1" fill-opacity="0" stroke="#000000" stroke-width="1" stroke-opacity="0"></use></g></g><g><use xlink:href="#eOiU6EQsn" opacity="1" fill="#263d5b" fill-opacity="1"></use><g><use xlink:href="#eOiU6EQsn" opacity="1" fill-opacity="0" stroke="#000000" stroke-width="1" stroke-opacity="0"></use></g></g><g><use xlink:href="#a1CUG0BMem" opacity="1" fill="#263d5b" fill-opacity="1"></use><g><use xlink:href="#a1CUG0BMem" opacity="1" fill-opacity="0" stroke="#000000" stroke-width="1" stroke-opacity="0"></use></g></g><g><use xlink:href="#a6vr06Nsm" opacity="1" fill="#263d5b" fill-opacity="1"></use><g><use xlink:href="#a6vr06Nsm" opacity="1" fill-opacity="0" stroke="#000000" stroke-width="1" stroke-opacity="0"></use></g></g><g><use xlink:href="#p3N7oaKdsl" opacity="1" fill="#263d5b" fill-opacity="1"></use><g><use xlink:href="#p3N7oaKdsl" opacity="1" fill-opacity="0" stroke="#000000" stroke-width="1" stroke-opacity="0"></use></g></g><g><use xlink:href="#fM3cp85w" opacity="1" fill="#263d5b" fill-opacity="1"></use><g><use xlink:href="#fM3cp85w" opacity="1" fill-opacity="0" stroke="#000000" stroke-width="1" stroke-opacity="0"></use></g></g><g><use xlink:href="#d1hUzcwvif" opacity="1" fill="#263d5b" fill-opacity="1"></use><g><use xlink:href="#d1hUzcwvif" opacity="1" fill-opacity="0" stroke="#000000" stroke-width="1" stroke-opacity="0"></use></g></g><g><use xlink:href="#b2vZP5SVPm" opacity="1" fill="#263d5b" fill-opacity="1"></use><g><use xlink:href="#b2vZP5SVPm" opacity="1" fill-opacity="0" stroke="#000000" stroke-width="1" stroke-opacity="0"></use></g></g><g><use xlink:href="#a1WBaMxQw" opacity="1" fill="#263d5b" fill-opacity="1"></use><g><use xlink:href="#a1WBaMxQw" opacity="1" fill-opacity="0" stroke="#000000" stroke-width="1" stroke-opacity="0"></use></g></g><g><use xlink:href="#ijYGjCuMo" opacity="1" fill="#263d5b" fill-opacity="1"></use><g><use xlink:href="#ijYGjCuMo" opacity="1" fill-opacity="0" stroke="#000000" stroke-width="1" stroke-opacity="0"></use></g></g><g><use xlink:href="#g368mBrBX" opacity="1" fill="#263d5b" fill-opacity="1"></use><g><use xlink:href="#g368mBrBX" opacity="1" fill-opacity="0" stroke="#000000" stroke-width="1" stroke-opacity="0"></use></g></g><g><use xlink:href="#fkYh0CxPE" opacity="1" fill="#263d5b" fill-opacity="1"></use><g><use xlink:href="#fkYh0CxPE" opacity="1" fill-opacity="0" stroke="#000000" stroke-width="1" stroke-opacity="0"></use></g></g><g><use xlink:href="#a5ZlhqPoC5" opacity="1" fill="#263d5b" fill-opacity="1"></use><g><use xlink:href="#a5ZlhqPoC5" opacity="1" fill-opacity="0" stroke="#000000" stroke-width="1" stroke-opacity="0"></use></g></g></g></g></svg>