<?xml version="1.0" encoding="UTF-8" standalone="no"?>
<!DOCTYPE svg PUBLIC "-//W3C//DTD SVG 1.1//EN" "http://www.w3.org/Graphics/SVG/1.1/DTD/svg11.dtd">
<svg version="1.1" xmlns="http://www.w3.org/2000/svg" xmlns:xlink="http://www.w3.org/1999/xlink" preserveAspectRatio="xMidYMid meet" viewBox="0 0 439.27 129.14" width="439.27" height="129.14"><defs><path d="M438.62 -181.49C438.62 -181.49 438.62 -181.49 438.62 -181.49C438.62 117.91 438.62 284.25 438.62 317.51C438.62 317.51 438.62 317.51 438.62 317.51C139.22 317.51 -27.11 317.51 -60.38 317.51C-60.38 317.51 -60.38 317.51 -60.38 317.51C-60.38 18.11 -60.38 -148.22 -60.38 -181.49C-60.38 -181.49 -60.38 -181.49 -60.38 -181.49C239.02 -181.49 405.35 -181.49 438.62 -181.49Z" id="d1jlc46JFl"></path><path d="M438.62 -181.49C438.62 -181.49 438.62 -181.49 438.62 -181.49C438.62 117.91 438.62 284.25 438.62 317.51C438.62 317.51 438.62 317.51 438.62 317.51C139.22 317.51 -27.11 317.51 -60.38 317.51C-60.38 317.51 -60.38 317.51 -60.38 317.51C-60.38 18.11 -60.38 -148.22 -60.38 -181.49C-60.38 -181.49 -60.38 -181.49 -60.38 -181.49C239.02 -181.49 405.35 -181.49 438.62 -181.49Z" id="bz9LXepEv"></path><path d="M528.28 -54.51C528.28 -54.51 528.28 -54.51 528.28 -54.51C528 88.48 527.85 167.91 527.81 183.8C527.81 183.8 527.81 183.8 527.81 183.8C130.3 183.02 -90.54 182.59 -134.7 182.5C-134.7 182.5 -134.7 182.5 -134.7 182.5C-134.59 121.73 -134.49 72.44 -134.41 34.63C-134.31 -16.53 -134.26 -46.67 -134.24 -55.81C-134.24 -55.81 -134.24 -55.81 -134.24 -55.81C263.27 -55.03 484.11 -54.59 528.28 -54.51Z" id="e1BWXTCKNy"></path><path d="M111.54 55.3L119.58 75.24L114.7 75.24L113.22 71.25L105.63 71.25L104.16 75.24L99.27 75.24L107.34 55.3L111.54 55.3ZM111.68 67.26L109.46 61.46L109.42 61.46L107.19 67.26L111.68 67.26Z" id="a4lRTsgGHL"></path><path d="M141.48 55.3C141.48 63.01 141.48 67.3 141.48 68.15C141.48 70.61 140.82 72.47 139.49 73.73C138.17 74.97 136.23 75.6 133.69 75.6C131.15 75.6 129.22 74.97 127.88 73.73C126.56 72.47 125.91 70.61 125.91 68.15C125.91 67.3 125.91 63.01 125.91 55.3L130.46 55.3C130.46 62.22 130.46 66.06 130.46 66.82C130.46 68.44 130.71 69.57 131.21 70.19C131.72 70.82 132.55 71.13 133.69 71.13C134.83 71.13 135.66 70.82 136.16 70.19C136.67 69.57 136.93 68.44 136.93 66.82C136.93 66.06 136.93 62.22 136.93 55.3L141.48 55.3Z" id="p1y8b3Z43c"></path><path d="M160.44 55.41C161.48 55.72 162.25 56.03 162.75 56.34C162.8 56.38 163.04 56.54 163.48 56.82C162.38 58.99 161.77 60.2 161.65 60.44C161.49 60.35 161.28 60.22 161.02 60.07C160.77 59.91 160.29 59.71 159.59 59.46C158.88 59.2 158.21 59.07 157.59 59.07C156.84 59.07 156.26 59.23 155.84 59.55C155.43 59.87 155.22 60.3 155.22 60.86C155.22 61.14 155.31 61.39 155.51 61.63C155.7 61.86 156.04 62.11 156.51 62.37C156.98 62.64 157.39 62.85 157.74 63.02C158.1 63.17 158.65 63.41 159.4 63.73C160.69 64.28 161.78 65.03 162.69 65.97C163.6 66.92 164.06 67.98 164.06 69.17C164.06 70.33 163.85 71.33 163.43 72.19C163.03 73.03 162.47 73.7 161.75 74.18C161.03 74.67 160.23 75.03 159.36 75.24C158.5 75.48 157.55 75.6 156.53 75.6C155.66 75.6 154.81 75.5 153.97 75.33C153.14 75.16 152.44 74.95 151.87 74.68C151.3 74.41 150.79 74.14 150.33 73.89C149.89 73.63 149.57 73.41 149.36 73.23C149.34 73.21 149.23 73.13 149.05 72.98C150.41 70.68 151.16 69.41 151.31 69.15C151.5 69.32 151.77 69.53 152.1 69.78C152.45 70.02 153.05 70.36 153.91 70.77C154.77 71.19 155.53 71.4 156.2 71.4C158.11 71.4 159.07 70.75 159.07 69.44C159.07 69.17 158.99 68.91 158.86 68.67C158.73 68.44 158.5 68.21 158.15 67.99C157.8 67.75 157.49 67.57 157.22 67.43C156.95 67.29 156.52 67.08 155.91 66.8C155.31 66.51 154.87 66.3 154.58 66.16C153.37 65.57 152.43 64.82 151.77 63.93C151.1 63.03 150.77 62.06 150.77 61.02C150.77 59.23 151.43 57.77 152.75 56.64C154.08 55.5 155.58 54.93 157.28 54.93C158.36 54.93 159.41 55.09 160.44 55.41Z" id="a3BXgluYI"></path><path d="M170.71 59.28L170.71 55.3L184.75 55.3L184.75 59.28L180.01 59.28L180.01 75.24L175.45 75.24L175.45 59.28L170.71 59.28Z" id="b3GE1WmJA"></path><path d="M196.72 55.3L196.72 75.24L192.19 75.24L192.19 55.3L196.72 55.3Z" id="dqQaPyeDu"></path><path d="M209.96 75.24L205.43 75.24L205.43 55.3L209.96 55.3L217.91 67.68L217.95 67.68L217.95 55.3L222.5 55.3L222.5 75.24L217.95 75.24L210.03 62.87L209.96 75.24Z" id="a1id9SzSYi"></path><path d="M252.26 55.3C252.26 63.89 252.26 68.66 252.26 69.61C252.26 71.56 251.73 73.06 250.66 74.08C249.59 75.09 248.05 75.6 246.05 75.6C245.52 75.6 245 75.53 244.49 75.41C243.97 75.29 243.54 75.13 243.18 74.95C242.81 74.76 242.5 74.57 242.22 74.37C241.94 74.18 241.74 74.02 241.6 73.89C241.58 73.88 241.51 73.82 241.39 73.71C242.26 71.42 242.75 70.15 242.84 69.9C243.78 70.8 244.64 71.25 245.42 71.25C246.11 71.25 246.67 71.02 247.09 70.57C247.51 70.11 247.73 69.4 247.73 68.44C247.73 67.57 247.73 63.19 247.73 55.3L252.26 55.3Z" id="a713iRf9ln"></path><path d="M262.79 57.94C264.75 55.94 267.12 54.93 269.9 54.93C272.68 54.93 275.04 55.93 276.99 57.92C278.94 59.91 279.92 62.35 279.92 65.26C279.92 68.17 278.95 70.63 277.03 72.62C275.12 74.61 272.74 75.6 269.9 75.6C266.97 75.6 264.56 74.61 262.66 72.64C260.78 70.68 259.83 68.22 259.83 65.26C259.83 62.38 260.82 59.94 262.79 57.94ZM265.22 68.13C265.54 69 266.1 69.72 266.9 70.32C267.72 70.91 268.72 71.21 269.9 71.21C271.59 71.21 272.86 70.63 273.72 69.46C274.58 68.3 275.01 66.9 275.01 65.26C275.01 63.63 274.57 62.23 273.68 61.06C272.81 59.9 271.55 59.32 269.9 59.32C268.24 59.32 266.97 59.9 266.07 61.06C265.18 62.23 264.74 63.63 264.74 65.26C264.74 66.3 264.9 67.26 265.22 68.13Z" id="a4WyiTKPJ"></path><path d="M292.26 67.24L292.26 75.24L287.72 75.24L287.72 55.3L292.26 55.3L292.26 63.25L298.7 63.25L298.7 55.3L303.23 55.3L303.23 75.24L298.7 75.24L298.7 67.24L292.26 67.24Z" id="h1c1WVJ30e"></path><path d="M316.47 75.24L311.94 75.24L311.94 55.3L316.47 55.3L324.41 67.68L324.46 67.68L324.46 55.3L329.01 55.3L329.01 75.24L324.46 75.24L316.53 62.87L316.47 75.24Z" id="bb1bIsKg3V"></path><path d="M348.2 55.41C349.24 55.72 350.01 56.03 350.51 56.34C350.56 56.38 350.8 56.54 351.24 56.82C350.14 58.99 349.53 60.2 349.41 60.44C349.25 60.35 349.04 60.22 348.78 60.07C348.53 59.91 348.05 59.71 347.35 59.46C346.64 59.2 345.98 59.07 345.35 59.07C344.6 59.07 344.02 59.23 343.61 59.55C343.19 59.87 342.98 60.3 342.98 60.86C342.98 61.14 343.08 61.39 343.27 61.63C343.47 61.86 343.8 62.11 344.27 62.37C344.74 62.64 345.15 62.85 345.5 63.02C345.86 63.17 346.41 63.41 347.16 63.73C348.45 64.28 349.54 65.03 350.45 65.97C351.36 66.92 351.82 67.98 351.82 69.17C351.82 70.33 351.61 71.33 351.19 72.19C350.79 73.03 350.23 73.7 349.51 74.18C348.79 74.67 347.99 75.03 347.12 75.24C346.26 75.48 345.32 75.6 344.29 75.6C343.42 75.6 342.57 75.5 341.73 75.33C340.9 75.16 340.2 74.95 339.63 74.68C339.06 74.41 338.55 74.14 338.1 73.89C337.65 73.63 337.33 73.41 337.12 73.23C337.1 73.21 336.99 73.13 336.81 72.98C338.17 70.68 338.92 69.41 339.07 69.15C339.27 69.32 339.53 69.53 339.86 69.78C340.21 70.02 340.81 70.36 341.67 70.77C342.53 71.19 343.29 71.4 343.96 71.4C345.87 71.4 346.83 70.75 346.83 69.44C346.83 69.17 346.76 68.91 346.62 68.67C346.5 68.44 346.26 68.21 345.91 67.99C345.57 67.75 345.25 67.57 344.98 67.43C344.71 67.29 344.28 67.08 343.67 66.8C343.07 66.51 342.63 66.3 342.34 66.16C341.13 65.57 340.2 64.82 339.53 63.93C338.87 63.03 338.53 62.06 338.53 61.02C338.53 59.23 339.19 57.77 340.51 56.64C341.84 55.5 343.35 54.93 345.04 54.93C346.12 54.93 347.17 55.09 348.2 55.41Z" id="d4fGlSdCiB"></path><path d="M361.8 57.94C363.76 55.94 366.14 54.93 368.91 54.93C371.7 54.93 374.06 55.93 376 57.92C377.96 59.91 378.93 62.35 378.93 65.26C378.93 68.17 377.97 70.63 376.04 72.62C374.13 74.61 371.75 75.6 368.91 75.6C365.98 75.6 363.57 74.61 361.68 72.64C359.79 70.68 358.85 68.22 358.85 65.26C358.85 62.38 359.83 59.94 361.8 57.94ZM364.23 68.13C364.55 69 365.11 69.72 365.92 70.32C366.73 70.91 367.73 71.21 368.91 71.21C370.6 71.21 371.87 70.63 372.74 69.46C373.59 68.3 374.03 66.9 374.03 65.26C374.03 63.63 373.58 62.23 372.69 61.06C371.82 59.9 370.56 59.32 368.91 59.32C367.26 59.32 365.98 59.9 365.09 61.06C364.2 62.23 363.75 63.63 363.75 65.26C363.75 66.3 363.91 67.26 364.23 68.13Z" id="b2XD5Z2FoF"></path><path d="M391.27 75.24L386.74 75.24L386.74 55.3L391.27 55.3L399.21 67.68L399.25 67.68L399.25 55.3L403.81 55.3L403.81 75.24L399.25 75.24L391.33 62.87L391.27 75.24Z" id="ahOLQfWh"></path><path d="M49.33 40.67L49.33 95.53L55.93 95.53L55.93 40.67L49.33 40.67Z" id="c69Gnmv6oq"></path><path d="M19.17 95.53L49.33 95.53L49.33 68.1L19.17 95.53Z" id="cFR5EdsHf"></path><path d="M19.17 40.67L49.33 68.1L49.33 40.67L19.17 40.67Z" id="b7oXdrLKhQ"></path><path d="M87.03 68.1L56.87 40.67L55.93 40.67L55.93 95.53L56.87 95.53L87.03 68.1Z" id="c215rzYqT"></path></defs><g><g><g><use xlink:href="#d1jlc46JFl" opacity="1" fill="#ffffff" fill-opacity="1"></use><g><use xlink:href="#d1jlc46JFl" opacity="1" fill-opacity="0" stroke="#000000" stroke-width="1" stroke-opacity="0"></use></g></g><g><use xlink:href="#bz9LXepEv" opacity="1" fill="#ffffff" fill-opacity="1"></use><g><use xlink:href="#bz9LXepEv" opacity="1" fill-opacity="0" stroke="#000000" stroke-width="1" stroke-opacity="0"></use></g></g><g><use xlink:href="#e1BWXTCKNy" opacity="1" fill="#263d5b" fill-opacity="1"></use><g><use xlink:href="#e1BWXTCKNy" opacity="1" fill-opacity="0" stroke="#000000" stroke-width="1" stroke-opacity="0"></use></g></g><g><use xlink:href="#a4lRTsgGHL" opacity="1" fill="#ffffff" fill-opacity="1"></use><g><use xlink:href="#a4lRTsgGHL" opacity="1" fill-opacity="0" stroke="#000000" stroke-width="1" stroke-opacity="0"></use></g></g><g><use xlink:href="#p1y8b3Z43c" opacity="1" fill="#ffffff" fill-opacity="1"></use><g><use xlink:href="#p1y8b3Z43c" opacity="1" fill-opacity="0" stroke="#000000" stroke-width="1" stroke-opacity="0"></use></g></g><g><use xlink:href="#a3BXgluYI" opacity="1" fill="#ffffff" fill-opacity="1"></use><g><use xlink:href="#a3BXgluYI" opacity="1" fill-opacity="0" stroke="#000000" stroke-width="1" stroke-opacity="0"></use></g></g><g><use xlink:href="#b3GE1WmJA" opacity="1" fill="#ffffff" fill-opacity="1"></use><g><use xlink:href="#b3GE1WmJA" opacity="1" fill-opacity="0" stroke="#000000" stroke-width="1" stroke-opacity="0"></use></g></g><g><use xlink:href="#dqQaPyeDu" opacity="1" fill="#ffffff" fill-opacity="1"></use><g><use xlink:href="#dqQaPyeDu" opacity="1" fill-opacity="0" stroke="#000000" stroke-width="1" stroke-opacity="0"></use></g></g><g><use xlink:href="#a1id9SzSYi" opacity="1" fill="#ffffff" fill-opacity="1"></use><g><use xlink:href="#a1id9SzSYi" opacity="1" fill-opacity="0" stroke="#000000" stroke-width="1" stroke-opacity="0"></use></g></g><g><use xlink:href="#a713iRf9ln" opacity="1" fill="#ffffff" fill-opacity="1"></use><g><use xlink:href="#a713iRf9ln" opacity="1" fill-opacity="0" stroke="#000000" stroke-width="1" stroke-opacity="0"></use></g></g><g><use xlink:href="#a4WyiTKPJ" opacity="1" fill="#ffffff" fill-opacity="1"></use><g><use xlink:href="#a4WyiTKPJ" opacity="1" fill-opacity="0" stroke="#000000" stroke-width="1" stroke-opacity="0"></use></g></g><g><use xlink:href="#h1c1WVJ30e" opacity="1" fill="#ffffff" fill-opacity="1"></use><g><use xlink:href="#h1c1WVJ30e" opacity="1" fill-opacity="0" stroke="#000000" stroke-width="1" stroke-opacity="0"></use></g></g><g><use xlink:href="#bb1bIsKg3V" opacity="1" fill="#ffffff" fill-opacity="1"></use><g><use xlink:href="#bb1bIsKg3V" opacity="1" fill-opacity="0" stroke="#000000" stroke-width="1" stroke-opacity="0"></use></g></g><g><use xlink:href="#d4fGlSdCiB" opacity="1" fill="#ffffff" fill-opacity="1"></use><g><use xlink:href="#d4fGlSdCiB" opacity="1" fill-opacity="0" stroke="#000000" stroke-width="1" stroke-opacity="0"></use></g></g><g><use xlink:href="#b2XD5Z2FoF" opacity="1" fill="#ffffff" fill-opacity="1"></use><g><use xlink:href="#b2XD5Z2FoF" opacity="1" fill-opacity="0" stroke="#000000" stroke-width="1" stroke-opacity="0"></use></g></g><g><use xlink:href="#ahOLQfWh" opacity="1" fill="#ffffff" fill-opacity="1"></use><g><use xlink:href="#ahOLQfWh" opacity="1" fill-opacity="0" stroke="#000000" stroke-width="1" stroke-opacity="0"></use></g></g><g><use xlink:href="#c69Gnmv6oq" opacity="1" fill="#ffffff" fill-opacity="1"></use><g><use xlink:href="#c69Gnmv6oq" opacity="1" fill-opacity="0" stroke="#000000" stroke-width="1" stroke-opacity="0"></use></g></g><g><use xlink:href="#cFR5EdsHf" opacity="1" fill="#ffffff" fill-opacity="1"></use><g><use xlink:href="#cFR5EdsHf" opacity="1" fill-opacity="0" stroke="#000000" stroke-width="1" stroke-opacity="0"></use></g></g><g><use xlink:href="#b7oXdrLKhQ" opacity="1" fill="#ffffff" fill-opacity="1"></use><g><use xlink:href="#b7oXdrLKhQ" opacity="1" fill-opacity="0" stroke="#000000" stroke-width="1" stroke-opacity="0"></use></g></g><g><use xlink:href="#c215rzYqT" opacity="1" fill="#ffffff" fill-opacity="1"></use><g><use xlink:href="#c215rzYqT" opacity="1" fill-opacity="0" stroke="#000000" stroke-width="1" stroke-opacity="0"></use></g></g></g></g></svg>