<?xml version="1.0" encoding="UTF-8" standalone="no"?>
<!DOCTYPE svg PUBLIC "-//W3C//DTD SVG 1.1//EN" "http://www.w3.org/Graphics/SVG/1.1/DTD/svg11.dtd">
<svg version="1.1" xmlns="http://www.w3.org/2000/svg" xmlns:xlink="http://www.w3.org/1999/xlink" preserveAspectRatio="xMidYMid meet" viewBox="0 0 524.76 129.14" width="524.76" height="129.14"><defs><path d="M521.01 -166.67C521.01 -166.67 521.01 -166.67 521.01 -166.67C521.01 132.73 521.01 299.07 521.01 332.33C521.01 332.33 521.01 332.33 521.01 332.33C212.5 332.33 41.1 332.33 6.82 332.33C6.82 332.33 6.82 332.33 6.82 332.33C6.82 32.93 6.82 -133.4 6.82 -166.67C6.82 -166.67 6.82 -166.67 6.82 -166.67C315.33 -166.67 486.73 -166.67 521.01 -166.67Z" id="j4GCsks4B"></path><path d="M599.76 -178.79C599.76 -178.79 599.76 -178.79 599.76 -178.79C599.76 123.34 599.76 291.19 599.76 324.76C599.76 324.76 599.76 324.76 599.76 324.76C221.24 324.76 10.95 324.76 -31.11 324.76C-31.11 324.76 -31.11 324.76 -31.11 324.76C-31.11 22.63 -31.11 -145.22 -31.11 -178.79C-31.11 -178.79 -31.11 -178.79 -31.11 -178.79C347.41 -178.79 557.7 -178.79 599.76 -178.79Z" id="a37RqQPC7e"></path><path d="M40.36 48.66L53.22 79.53L45.42 79.53L43.06 73.36L30.96 73.36L28.6 79.53L20.82 79.53L33.65 48.66L40.36 48.66ZM40.6 67.18L37.04 58.2L36.98 58.2L33.42 67.18L40.6 67.18Z" id="bw3lab2vC"></path><path d="M88.14 48.66C88.14 60.61 88.14 67.25 88.14 68.58C88.14 72.36 87.08 75.23 84.97 77.18C82.87 79.13 79.79 80.1 75.72 80.1C71.66 80.1 68.57 79.13 66.46 77.18C64.36 75.23 63.31 72.36 63.31 68.58C63.31 67.25 63.31 60.61 63.31 48.66L70.55 48.66C70.55 59.37 70.55 65.33 70.55 66.52C70.55 69.01 70.96 70.75 71.78 71.72C72.59 72.69 73.9 73.17 75.72 73.17C77.54 73.17 78.87 72.69 79.68 71.72C80.5 70.75 80.9 69.01 80.9 66.52C80.9 65.33 80.9 59.37 80.9 48.66L88.14 48.66Z" id="c6csGIBaOb"></path><path d="M118.42 48.82C120.06 49.31 121.28 49.79 122.09 50.26C122.16 50.31 122.55 50.56 123.24 51.01C121.48 54.38 120.5 56.25 120.31 56.62C120.08 56.49 119.76 56.3 119.35 56.06C118.93 55.81 118.16 55.49 117.03 55.1C115.9 54.7 114.85 54.5 113.88 54.5C112.67 54.5 111.73 54.75 111.08 55.25C110.42 55.75 110.09 56.42 110.09 57.27C110.09 57.7 110.24 58.09 110.54 58.45C110.85 58.82 111.38 59.2 112.13 59.62C112.88 60.02 113.54 60.34 114.1 60.59C114.66 60.84 115.54 61.22 116.73 61.72C118.79 62.56 120.53 63.72 121.98 65.19C123.44 66.64 124.17 68.3 124.17 70.14C124.17 71.91 123.83 73.46 123.18 74.79C122.52 76.11 121.62 77.14 120.48 77.89C119.33 78.64 118.07 79.2 116.69 79.56C115.3 79.91 113.8 80.1 112.17 80.1C110.78 80.1 109.41 79.96 108.08 79.68C106.75 79.4 105.63 79.07 104.73 78.66C103.83 78.25 103.02 77.84 102.29 77.43C101.57 77.03 101.05 76.7 100.73 76.44C100.69 76.41 100.52 76.27 100.21 76.02C102.4 72.47 103.61 70.49 103.86 70.09C104.16 70.34 104.57 70.67 105.12 71.05C105.66 71.44 106.62 71.96 107.99 72.61C109.36 73.27 110.57 73.59 111.63 73.59C114.69 73.59 116.22 72.58 116.22 70.55C116.22 70.13 116.11 69.73 115.9 69.37C115.68 69.01 115.3 68.65 114.74 68.29C114.18 67.93 113.69 67.64 113.26 67.43C112.84 67.22 112.15 66.89 111.18 66.46C110.22 66.01 109.52 65.68 109.06 65.46C107.13 64.54 105.64 63.39 104.58 62.01C103.52 60.62 103 59.13 103 57.54C103 54.77 104.05 52.5 106.15 50.74C108.26 48.98 110.67 48.1 113.37 48.1C115.09 48.1 116.78 48.34 118.42 48.82Z" id="a2pT0kkJ5y"></path><path d="M134.81 54.83L134.81 48.66L157.17 48.66L157.17 54.83L149.63 54.83L149.63 79.53L142.37 79.53L142.37 54.83L134.81 54.83Z" id="cJNJAZ9eD"></path><path d="M176.3 48.66L176.3 79.53L169.06 79.53L169.06 48.66L176.3 48.66Z" id="dKWoa2RxR"></path><path d="M197.44 79.53L190.2 79.53L190.2 48.66L197.44 48.66L210.1 67.83L210.17 67.83L210.17 48.66L217.43 48.66L217.43 79.53L210.17 79.53L197.53 60.36L197.44 79.53Z" id="b1WjYH82n7"></path><path d="M263.91 48.1C263.91 61.4 263.91 68.78 263.91 70.26C263.91 73.27 263.06 75.57 261.34 77.16C259.64 78.74 257.2 79.53 254.02 79.53C253.16 79.53 252.31 79.43 251.49 79.22C250.67 79.02 249.98 78.8 249.41 78.52C248.85 78.22 248.34 77.93 247.89 77.64C247.45 77.34 247.12 77.08 246.9 76.87C246.88 76.85 246.77 76.76 246.56 76.58C247.95 73.05 248.72 71.09 248.87 70.7C250.39 72.1 251.77 72.8 253.01 72.8C254.11 72.8 254.99 72.44 255.67 71.74C256.34 71.02 256.67 69.92 256.67 68.45C256.67 67.1 256.67 60.31 256.67 48.1L263.91 48.1Z" id="aq0FHAzE7"></path><path d="M281.72 52.73C284.86 49.65 288.64 48.1 293.05 48.1C297.51 48.1 301.29 49.65 304.39 52.73C307.5 55.81 309.06 59.6 309.06 64.09C309.06 68.59 307.53 72.39 304.47 75.48C301.41 78.56 297.61 80.1 293.05 80.1C288.39 80.1 284.55 78.57 281.53 75.52C278.51 72.46 277.01 68.65 277.01 64.09C277.01 59.61 278.57 55.83 281.72 52.73ZM285.62 68.51C286.13 69.85 287.03 70.98 288.32 71.9C289.6 72.82 291.18 73.28 293.05 73.28C295.75 73.28 297.79 72.38 299.16 70.59C300.54 68.8 301.24 66.62 301.24 64.09C301.24 61.57 300.54 59.4 299.14 57.6C297.73 55.78 295.71 54.88 293.05 54.88C290.44 54.88 288.41 55.78 286.99 57.6C285.56 59.4 284.85 61.57 284.85 64.09C284.85 65.71 285.1 67.18 285.62 68.51Z" id="a1RMIMqLUP"></path><path d="M328.76 67.14L328.76 79.53L321.52 79.53L321.52 48.66L328.76 48.66L328.76 60.97L339.02 60.97L339.02 48.66L346.29 48.66L346.29 79.53L339.02 79.53L339.02 67.14L328.76 67.14Z" id="aJz6jD7dw"></path><path d="M367.4 79.53L360.16 79.53L360.16 48.66L367.4 48.66L380.07 67.83L380.13 67.83L380.13 48.66L387.39 48.66L387.39 79.53L380.13 79.53L367.49 60.36L367.4 79.53Z" id="a407RVw8cZ"></path><path d="M418.05 48.82C419.69 49.31 420.91 49.79 421.71 50.26C421.79 50.31 422.18 50.56 422.87 51.01C421.11 54.38 420.13 56.25 419.94 56.62C419.71 56.49 419.38 56.3 418.97 56.06C418.55 55.81 417.78 55.49 416.66 55.1C415.53 54.7 414.48 54.5 413.51 54.5C412.29 54.5 411.36 54.75 410.7 55.25C410.04 55.75 409.72 56.42 409.72 57.27C409.72 57.7 409.87 58.09 410.17 58.45C410.48 58.82 411.01 59.2 411.75 59.62C412.51 60.02 413.17 60.34 413.72 60.59C414.29 60.84 415.17 61.22 416.36 61.72C418.42 62.56 420.16 63.72 421.61 65.19C423.06 66.64 423.79 68.3 423.79 70.14C423.79 71.91 423.46 73.46 422.81 74.79C422.15 76.11 421.25 77.14 420.11 77.89C418.96 78.64 417.7 79.2 416.32 79.56C414.93 79.91 413.42 80.1 411.79 80.1C410.41 80.1 409.04 79.96 407.7 79.68C406.37 79.4 405.26 79.07 404.36 78.66C403.46 78.25 402.65 77.84 401.92 77.43C401.2 77.03 400.68 76.7 400.35 76.44C400.32 76.41 400.15 76.27 399.84 76.02C402.03 72.47 403.24 70.49 403.48 70.09C403.78 70.34 404.2 70.67 404.75 71.05C405.29 71.44 406.25 71.96 407.62 72.61C408.99 73.27 410.2 73.59 411.26 73.59C414.31 73.59 415.84 72.58 415.84 70.55C415.84 70.13 415.74 69.73 415.52 69.37C415.31 69.01 414.92 68.65 414.37 68.29C413.81 67.93 413.32 67.64 412.89 67.43C412.47 67.22 411.78 66.89 410.81 66.46C409.85 66.01 409.14 65.68 408.69 65.46C406.76 64.54 405.27 63.39 404.21 62.01C403.15 60.62 402.63 59.13 402.63 57.54C402.63 54.77 403.67 52.5 405.77 50.74C407.88 48.98 410.3 48.1 412.99 48.1C414.72 48.1 416.41 48.34 418.05 48.82Z" id="d1d9C2iixK"></path><path d="M439.73 52.73C442.86 49.65 446.65 48.1 451.06 48.1C455.52 48.1 459.29 49.65 462.39 52.73C465.51 55.81 467.06 59.6 467.06 64.09C467.06 68.59 465.53 72.39 462.48 75.48C459.42 78.56 455.61 80.1 451.06 80.1C446.4 80.1 442.56 78.57 439.53 75.52C436.52 72.46 435.01 68.65 435.01 64.09C435.01 59.61 436.58 55.83 439.73 52.73ZM443.63 68.51C444.14 69.85 445.04 70.98 446.33 71.9C447.61 72.82 449.19 73.28 451.06 73.28C453.76 73.28 455.79 72.38 457.17 70.59C458.55 68.8 459.24 66.62 459.24 64.09C459.24 61.57 458.54 59.4 457.14 57.6C455.74 55.78 453.72 54.88 451.06 54.88C448.45 54.88 446.42 55.78 445 57.6C443.57 59.4 442.85 61.57 442.85 64.09C442.85 65.71 443.11 67.18 443.63 68.51Z" id="dtcbigQSG"></path><path d="M486.77 79.53L479.53 79.53L479.53 48.66L486.77 48.66L499.43 67.83L499.49 67.83L499.49 48.66L506.76 48.66L506.76 79.53L499.49 79.53L486.85 60.36L486.77 79.53Z" id="e1pcSw5Vfu"></path></defs><g><g><g><use xlink:href="#j4GCsks4B" opacity="1" fill="#ffffff" fill-opacity="1"></use><g><use xlink:href="#j4GCsks4B" opacity="1" fill-opacity="0" stroke="#000000" stroke-width="1" stroke-opacity="0"></use></g></g><g><use xlink:href="#a37RqQPC7e" opacity="1" fill="#263d5b" fill-opacity="1"></use><g><use xlink:href="#a37RqQPC7e" opacity="1" fill-opacity="0" stroke="#000000" stroke-width="1" stroke-opacity="0"></use></g></g><g><use xlink:href="#bw3lab2vC" opacity="1" fill="#ffffff" fill-opacity="1"></use><g><use xlink:href="#bw3lab2vC" opacity="1" fill-opacity="0" stroke="#000000" stroke-width="1" stroke-opacity="0"></use></g></g><g><use xlink:href="#c6csGIBaOb" opacity="1" fill="#ffffff" fill-opacity="1"></use><g><use xlink:href="#c6csGIBaOb" opacity="1" fill-opacity="0" stroke="#000000" stroke-width="1" stroke-opacity="0"></use></g></g><g><use xlink:href="#a2pT0kkJ5y" opacity="1" fill="#ffffff" fill-opacity="1"></use><g><use xlink:href="#a2pT0kkJ5y" opacity="1" fill-opacity="0" stroke="#000000" stroke-width="1" stroke-opacity="0"></use></g></g><g><use xlink:href="#cJNJAZ9eD" opacity="1" fill="#ffffff" fill-opacity="1"></use><g><use xlink:href="#cJNJAZ9eD" opacity="1" fill-opacity="0" stroke="#000000" stroke-width="1" stroke-opacity="0"></use></g></g><g><use xlink:href="#dKWoa2RxR" opacity="1" fill="#ffffff" fill-opacity="1"></use><g><use xlink:href="#dKWoa2RxR" opacity="1" fill-opacity="0" stroke="#000000" stroke-width="1" stroke-opacity="0"></use></g></g><g><use xlink:href="#b1WjYH82n7" opacity="1" fill="#ffffff" fill-opacity="1"></use><g><use xlink:href="#b1WjYH82n7" opacity="1" fill-opacity="0" stroke="#000000" stroke-width="1" stroke-opacity="0"></use></g></g><g><use xlink:href="#aq0FHAzE7" opacity="1" fill="#ffffff" fill-opacity="1"></use><g><use xlink:href="#aq0FHAzE7" opacity="1" fill-opacity="0" stroke="#000000" stroke-width="1" stroke-opacity="0"></use></g></g><g><use xlink:href="#a1RMIMqLUP" opacity="1" fill="#ffffff" fill-opacity="1"></use><g><use xlink:href="#a1RMIMqLUP" opacity="1" fill-opacity="0" stroke="#000000" stroke-width="1" stroke-opacity="0"></use></g></g><g><use xlink:href="#aJz6jD7dw" opacity="1" fill="#ffffff" fill-opacity="1"></use><g><use xlink:href="#aJz6jD7dw" opacity="1" fill-opacity="0" stroke="#000000" stroke-width="1" stroke-opacity="0"></use></g></g><g><use xlink:href="#a407RVw8cZ" opacity="1" fill="#ffffff" fill-opacity="1"></use><g><use xlink:href="#a407RVw8cZ" opacity="1" fill-opacity="0" stroke="#000000" stroke-width="1" stroke-opacity="0"></use></g></g><g><use xlink:href="#d1d9C2iixK" opacity="1" fill="#ffffff" fill-opacity="1"></use><g><use xlink:href="#d1d9C2iixK" opacity="1" fill-opacity="0" stroke="#000000" stroke-width="1" stroke-opacity="0"></use></g></g><g><use xlink:href="#dtcbigQSG" opacity="1" fill="#ffffff" fill-opacity="1"></use><g><use xlink:href="#dtcbigQSG" opacity="1" fill-opacity="0" stroke="#000000" stroke-width="1" stroke-opacity="0"></use></g></g><g><use xlink:href="#e1pcSw5Vfu" opacity="1" fill="#ffffff" fill-opacity="1"></use><g><use xlink:href="#e1pcSw5Vfu" opacity="1" fill-opacity="0" stroke="#000000" stroke-width="1" stroke-opacity="0"></use></g></g></g></g></svg>