<?xml version="1.0" encoding="UTF-8" standalone="no"?>
<!DOCTYPE svg PUBLIC "-//W3C//DTD SVG 1.1//EN" "http://www.w3.org/Graphics/SVG/1.1/DTD/svg11.dtd">
<svg version="1.1" xmlns="http://www.w3.org/2000/svg" xmlns:xlink="http://www.w3.org/1999/xlink" preserveAspectRatio="xMidYMid meet" viewBox="0 0 499 499" width="499" height="499"><defs><path d="M499.5 0C499.5 0 499.5 0 499.5 0C499.5 299.4 499.5 465.73 499.5 499C499.5 499 499.5 499 499.5 499C200.1 499 33.77 499 0.5 499C0.5 499 0.5 499 0.5 499C0.5 199.6 0.5 33.27 0.5 0C0.5 0 0.5 0 0.5 0C299.9 0 466.23 0 499.5 0Z" id="b1q28s7Wrn"></path><path d="M499.5 0C499.5 0 499.5 0 499.5 0C499.5 299.4 499.5 465.73 499.5 499C499.5 499 499.5 499 499.5 499C200.1 499 33.77 499 0.5 499C0.5 499 0.5 499 0.5 499C0.5 199.6 0.5 33.27 0.5 0C0.5 0 0.5 0 0.5 0C299.9 0 466.23 0 499.5 0Z" id="a1K8BHp9hN"></path><path d="M224.85 80.17L224.85 434.19L267.47 434.19L267.47 80.17L224.85 80.17Z" id="bTTyozzbu"></path><path d="M30.13 434.19L224.85 434.19L224.85 257.18L30.13 434.19Z" id="f1x9ZdxCHW"></path><path d="M30.13 80.17L224.85 257.18L224.85 80.17L30.13 80.17Z" id="b1inOGraDL"></path><path d="M468.26 257.18L273.53 80.17L267.47 80.17L267.47 434.19L273.53 434.19L468.26 257.18Z" id="bx3Dq2L8W"></path></defs><g><g><g><use xlink:href="#b1q28s7Wrn" opacity="1" fill="#ffffff" fill-opacity="1"></use><g><use xlink:href="#b1q28s7Wrn" opacity="1" fill-opacity="0" stroke="#000000" stroke-width="1" stroke-opacity="0"></use></g></g><g><use xlink:href="#a1K8BHp9hN" opacity="1" fill="#263d5b" fill-opacity="1"></use><g><use xlink:href="#a1K8BHp9hN" opacity="1" fill-opacity="0" stroke="#000000" stroke-width="1" stroke-opacity="0"></use></g></g><g><use xlink:href="#bTTyozzbu" opacity="1" fill="#ffffff" fill-opacity="1"></use><g><use xlink:href="#bTTyozzbu" opacity="1" fill-opacity="0" stroke="#000000" stroke-width="1" stroke-opacity="0"></use></g></g><g><use xlink:href="#f1x9ZdxCHW" opacity="1" fill="#ffffff" fill-opacity="1"></use><g><use xlink:href="#f1x9ZdxCHW" opacity="1" fill-opacity="0" stroke="#000000" stroke-width="1" stroke-opacity="0"></use></g></g><g><use xlink:href="#b1inOGraDL" opacity="1" fill="#ffffff" fill-opacity="1"></use><g><use xlink:href="#b1inOGraDL" opacity="1" fill-opacity="0" stroke="#000000" stroke-width="1" stroke-opacity="0"></use></g></g><g><use xlink:href="#bx3Dq2L8W" opacity="1" fill="#ffffff" fill-opacity="1"></use><g><use xlink:href="#bx3Dq2L8W" opacity="1" fill-opacity="0" stroke="#000000" stroke-width="1" stroke-opacity="0"></use></g></g></g></g></svg>